<svg width="370" height="421" viewBox="0 0 370 421" fill="none" xmlns="http://www.w3.org/2000/svg">
<g clip-path="url(#clip0_6:4)">
<path d="M174.043 248.043C220.707 248.043 258.534 210.281 258.534 163.699C258.534 117.117 220.707 79.3545 174.043 79.3545C127.38 79.3545 89.5526 117.117 89.5526 163.699C89.5526 210.281 127.38 248.043 174.043 248.043Z" stroke="#ECECEC" stroke-width="36.3042"/>
<path d="M173.708 320.194C261.443 320.194 332.566 249.194 332.566 161.612C332.566 74.029 261.443 3.02924 173.708 3.02924C85.9727 3.02924 14.8494 74.029 14.8494 161.612C14.8494 249.194 85.9727 320.194 173.708 320.194Z" stroke="#ECECEC" stroke-width="2.5286"/>
<path d="M172.96 286.304C240.903 286.304 295.981 231.321 295.981 163.496C295.981 95.6717 240.903 40.6891 172.96 40.6891C105.018 40.6891 49.9394 95.6717 49.9394 163.496C49.9394 231.321 105.018 286.304 172.96 286.304Z" stroke="#ECECEC" stroke-width="2.5947"/>
<path d="M25.2833 116.312C36.8638 116.312 46.2714 106.921 46.2714 95.3607C46.2714 83.8003 36.8638 74.4091 25.2833 74.4091C13.7028 74.4091 4.29517 83.794 4.29517 95.3544C4.29517 106.915 13.7028 116.312 25.2833 116.312Z" fill="url(#paint0_linear_6:4)"/>
<path fill-rule="evenodd" clip-rule="evenodd" d="M25.2833 99.4651C22.9773 99.4651 21.0768 97.5236 21.0768 95.1773V89.2138C21.0768 86.8233 22.933 84.926 25.2833 84.926C27.5892 84.926 29.4898 86.8675 29.4898 89.2138V95.1773C29.4898 97.5236 27.5892 99.4651 25.2833 99.4651ZM33.1578 94.8169C33.1578 99.0161 30.0346 102.494 26.0118 102.855V104.303H27.9567C28.3621 104.303 28.6789 104.663 28.6789 105.068C28.6789 105.473 28.3621 105.833 27.9567 105.833H22.5275C22.1221 105.833 21.8053 105.473 21.8053 105.068C21.8053 104.663 22.1221 104.303 22.5275 104.303H24.4724V102.855C20.494 102.45 17.3264 99.0161 17.3264 94.8169C17.3264 94.4121 17.6432 94.0517 18.0486 94.0517C18.4541 94.0517 18.7708 94.4121 18.7708 94.8169C18.7708 98.4279 21.6216 101.362 25.1502 101.362C28.6789 101.362 31.5297 98.4279 31.5297 94.8169C31.5297 94.4121 31.8464 94.0517 32.2518 94.0517C32.841 94.0453 33.1578 94.4058 33.1578 94.8169Z" fill="white"/>
<path d="M14.7037 206.456C22.8126 206.456 29.4074 199.872 29.4074 191.778C29.4074 183.683 22.8126 177.099 14.7037 177.099C6.59481 177.099 0 183.683 0 191.778C0 199.872 6.59481 206.456 14.7037 206.456Z" fill="url(#paint1_linear_6:4)"/>
<path d="M22.1348 191.581C22.0081 187.585 18.7392 184.423 14.7354 184.423C10.7316 184.423 7.46273 187.616 7.33603 191.581V194.257C7.33603 194.383 7.3677 194.484 7.39938 194.611C7.39938 196.255 8.75509 197.577 10.4022 197.577C10.9217 197.577 11.3081 197.159 11.3081 196.641V192.543C11.3081 192.024 10.9217 191.607 10.4022 191.607C9.95241 191.607 9.49629 191.733 9.07817 191.929V191.575C9.1732 188.508 11.6946 186.092 14.7671 186.092C17.8396 186.092 20.3546 188.514 20.456 191.575V191.898C20.0379 191.702 19.6134 191.607 19.1636 191.607C18.9039 191.607 18.6758 191.702 18.5174 191.898C18.3527 192.062 18.2577 192.315 18.2577 192.543V196.641C18.2577 196.9 18.3527 197.128 18.5174 197.286C18.6821 197.45 18.9355 197.577 19.1636 197.577C20.8107 197.577 22.1031 196.255 22.1348 194.611C22.1348 194.611 22.1348 194.547 22.1348 194.516C22.1664 194.453 22.1664 194.351 22.1664 194.288L22.1348 191.581Z" fill="white"/>
<path d="M337.419 191.657C353.073 191.657 365.762 178.99 365.762 163.363C365.762 147.737 353.073 135.07 337.419 135.07C321.765 135.07 309.076 147.737 309.076 163.363C309.076 178.99 321.765 191.657 337.419 191.657Z" fill="url(#paint2_linear_6:4)"/>
<path d="M344.907 151.032H331.413C326.554 151.032 322.639 154.94 322.639 159.79V164.711C322.639 169.561 326.554 173.469 331.413 173.469H332.154V178.99C332.154 179.262 332.287 179.528 332.56 179.667C332.832 179.8 333.098 179.737 333.371 179.597L341.536 173.469H344.976C349.835 173.469 353.751 169.561 353.751 164.711V159.79C353.617 154.94 349.702 151.032 344.907 151.032ZM344.907 161.277C345.648 161.277 346.256 161.681 346.592 162.352C346.864 163.028 346.725 163.768 346.186 164.306C345.648 164.843 344.907 164.983 344.229 164.711C343.551 164.439 343.152 163.768 343.152 163.092C343.152 162.617 343.355 162.149 343.69 161.814C343.963 161.479 344.438 161.277 344.907 161.277ZM338.097 161.277C338.838 161.277 339.446 161.681 339.782 162.352C340.054 163.028 339.915 163.768 339.376 164.306C338.838 164.843 338.097 164.983 337.419 164.711C336.741 164.439 336.342 163.768 336.342 163.092C336.342 162.617 336.544 162.149 336.88 161.814C337.216 161.479 337.621 161.277 338.097 161.277ZM331.343 164.843C330.602 164.843 329.994 164.439 329.658 163.768C329.322 163.092 329.525 162.352 330.064 161.814C330.602 161.277 331.343 161.137 332.021 161.409C332.699 161.681 333.098 162.352 333.098 163.092C333.098 164.034 332.287 164.843 331.343 164.843Z" fill="white"/>
<path d="M77.2246 52.0345C89.3055 52.0345 99.0869 42.2638 99.0869 30.2101C99.0869 18.1564 89.2992 8.38574 77.2246 8.38574C65.1499 8.38574 55.3622 18.1438 55.3622 30.2038C55.3622 42.2638 65.1436 52.0345 77.2246 52.0345Z" fill="url(#paint3_linear_6:4)"/>
<path fill-rule="evenodd" clip-rule="evenodd" d="M87.5507 31.1461H85.5235C85.3208 31.1461 85.0484 30.8109 85.0484 30.4062V24.9485C85.0484 22.792 83.4963 21.0402 81.5387 21.0402C79.5812 21.0402 78.0291 22.792 78.0291 24.9485V32.2212V36.1927C78.0291 37.135 77.4209 37.8749 76.6797 37.8749C75.9385 37.8749 75.3304 37.0654 75.3304 36.1927V32.2212V30.3999C75.3304 28.2433 73.7783 26.4916 71.8207 26.4916C69.8632 26.4916 68.3111 28.2433 68.3111 30.3999C68.3111 30.8046 68.0387 31.1398 67.836 31.1398H65.4096C64.8015 31.1398 64.3327 31.6141 64.3327 32.2149C64.3327 32.822 64.8078 33.29 65.4096 33.29H67.836C69.3184 33.29 70.465 32.0125 70.465 30.3935C70.465 29.4512 71.0732 28.6418 71.8144 28.6418C72.5556 28.6418 73.1638 29.4512 73.1638 30.3935V32.2149V36.1864C73.1638 38.3429 74.7159 40.0947 76.6734 40.0947C78.6309 40.0947 80.183 38.3429 80.183 36.1864V32.2149V24.9422C80.183 23.9999 80.7912 23.26 81.5324 23.26C82.2736 23.26 82.8818 24.0695 82.8818 24.9422V30.3999C82.8818 32.0188 84.0981 33.2963 85.5108 33.2963H87.538C88.1462 33.2963 88.615 32.822 88.615 32.2212C88.6974 31.6204 88.1589 31.1461 87.5507 31.1461Z" fill="white"/>
<path d="M51.2064 167.999C54.7856 167.999 57.6872 165.103 57.6872 161.53C57.6872 157.956 54.7856 155.06 51.2064 155.06C47.6272 155.06 44.7256 157.956 44.7256 161.53C44.7256 165.103 47.6272 167.999 51.2064 167.999Z" fill="#ECECEC"/>
<path d="M313.732 90.8137C317.311 90.8137 320.213 87.9172 320.213 84.3442C320.213 80.7711 317.311 77.8746 313.732 77.8746C310.153 77.8746 307.251 80.7711 307.251 84.3442C307.251 87.9172 310.153 90.8137 313.732 90.8137Z" fill="#ECECEC"/>
<path d="M118.707 18.8647C122.286 18.8647 125.187 15.9682 125.187 12.3952C125.187 8.82217 122.286 5.92566 118.707 5.92566C115.127 5.92566 112.226 8.82217 112.226 12.3952C112.226 15.9682 115.127 18.8647 118.707 18.8647Z" fill="#ECECEC"/>
<path d="M166.669 7.1462C168.646 7.1462 170.249 5.54647 170.249 3.5731C170.249 1.59973 168.646 0 166.669 0C164.693 0 163.09 1.59973 163.09 3.5731C163.09 5.54647 164.693 7.1462 166.669 7.1462Z" fill="#ECECEC"/>
<path d="M170.128 324.438C172.105 324.438 173.708 322.838 173.708 320.865C173.708 318.891 172.105 317.292 170.128 317.292C168.152 317.292 166.549 318.891 166.549 320.865C166.549 322.838 168.152 324.438 170.128 324.438Z" fill="#ECECEC"/>
<path d="M81.229 278.953L86.8989 284.613C88.7234 286.434 88.7234 289.463 86.8989 291.284L81.229 296.945C79.4045 298.766 76.37 298.766 74.5455 296.945L68.8756 291.284C67.0511 289.463 67.0511 286.434 68.8756 284.613L74.5455 278.953C76.37 277.131 79.4109 277.131 81.229 278.953Z" fill="#FFCF5D"/>
<path d="M324.235 261.766C325.249 262.778 325.249 264.46 324.235 265.472L319.446 270.253C318.432 271.265 316.747 271.265 315.734 270.253C314.72 269.241 314.72 267.559 315.734 266.547L320.523 261.766C321.537 260.761 323.222 260.761 324.235 261.766Z" fill="#6AF9C2"/>
<path d="M365.819 238.095C368.144 238.095 370 236.242 370 233.921C370 231.6 368.144 229.747 365.819 229.747C363.494 229.747 361.638 231.6 361.638 233.921C361.638 236.242 363.494 238.095 365.819 238.095Z" fill="#FE8C7A"/>
<path opacity="0.4" d="M50.953 17.0434C53.3793 17.0434 55.3369 15.0893 55.3369 12.6672C55.3369 10.245 53.3793 8.29089 50.953 8.29089C48.5267 8.29089 46.5691 10.245 46.5691 12.6672C46.5691 15.0893 48.5203 17.0434 50.953 17.0434Z" fill="#DB6BFF"/>
<path d="M313.376 323.314C322.209 323.314 329.369 316.154 329.369 307.321C329.369 298.489 322.209 291.329 313.376 291.329C304.543 291.329 297.383 298.489 297.383 307.321C297.383 316.154 304.543 323.314 313.376 323.314Z" fill="url(#paint4_linear_6:4)"/>
</g>
<defs>
<linearGradient id="paint0_linear_6:4" x1="18.1049" y1="67.0769" x2="33.4996" y2="127.93" gradientUnits="userSpaceOnUse">
<stop stop-color="#6EE8FF"/>
<stop offset="1" stop-color="#3885FF"/>
</linearGradient>
<linearGradient id="paint1_linear_6:4" x1="9.73834" y1="172.223" x2="20.4478" y2="214.556" gradientUnits="userSpaceOnUse">
<stop stop-color="#FFA1AA"/>
<stop offset="0.9998" stop-color="#FF5997"/>
</linearGradient>
<linearGradient id="paint2_linear_6:4" x1="327.859" y1="125.706" x2="348.496" y2="207.276" gradientUnits="userSpaceOnUse">
<stop stop-color="#AC5AFF"/>
<stop offset="0.9998" stop-color="#7659FF"/>
</linearGradient>
<linearGradient id="paint3_linear_6:4" x1="77.2242" y1="8.37879" x2="77.2242" y2="83.9972" gradientUnits="userSpaceOnUse">
<stop stop-color="#FFB339"/>
<stop offset="1" stop-color="#FF128E"/>
</linearGradient>
<linearGradient id="paint4_linear_6:4" x1="310.691" y1="294.394" x2="320.381" y2="341.036" gradientUnits="userSpaceOnUse">
<stop stop-color="#C57BFF"/>
<stop offset="1" stop-color="#454BCB"/>
</linearGradient>
<clipPath id="clip0_6:4">
<rect width="370" height="421" fill="white"/>
</clipPath>
</defs>
</svg>
